<?xml version="1.0" encoding="UTF-8" standalone="no"?>
<!DOCTYPE svg PUBLIC "-//W3C//DTD SVG 1.1//EN"
 "http://www.w3.org/Graphics/SVG/1.1/DTD/svg11.dtd">
<!-- Generated by graphviz version 2.43.0 (0)
 -->
<!-- Title: %3 Pages: 1 -->
<svg width="1832pt" height="210pt"
 viewBox="0.00 0.00 1831.69 210.00" xmlns="http://www.w3.org/2000/svg" xmlns:xlink="http://www.w3.org/1999/xlink">
<g id="graph0" class="graph" transform="scale(1 1) rotate(0) translate(4 206)">
<title>%3</title>
<polygon fill="white" stroke="transparent" points="-4,4 -4,-206 1827.69,-206 1827.69,4 -4,4"/>
<!-- 140613497994256 -->
<g id="node1" class="node">
<title>140613497994256</title>
<polygon fill="none" stroke="black" points="4.5,-165.5 4.5,-201.5 244.5,-201.5 244.5,-165.5 4.5,-165.5"/>
<text text-anchor="middle" x="21.5" y="-179.8" font-family="Times,serif" font-size="14.00">x2</text>
<polyline fill="none" stroke="black" points="38.5,-165.5 38.5,-201.5 "/>
<text text-anchor="middle" x="89.5" y="-179.8" font-family="Times,serif" font-size="14.00">data 0.0000</text>
<polyline fill="none" stroke="black" points="140.5,-165.5 140.5,-201.5 "/>
<text text-anchor="middle" x="192.5" y="-179.8" font-family="Times,serif" font-size="14.00">grad 0.0000</text>
</g>
<!-- 140613084123088* -->
<g id="node15" class="node">
<title>140613084123088*</title>
<ellipse fill="none" stroke="black" cx="312" cy="-128.5" rx="27" ry="18"/>
<text text-anchor="middle" x="312" y="-124.8" font-family="Times,serif" font-size="14.00">*</text>
</g>
<!-- 140613497994256&#45;&gt;140613084123088* -->
<g id="edge9" class="edge">
<title>140613497994256&#45;&gt;140613084123088*</title>
<path fill="none" stroke="black" d="M218.13,-165.46C228.63,-162.77 239.1,-159.78 249,-156.5 259.71,-152.96 271.05,-148.16 281.07,-143.54"/>
<polygon fill="black" stroke="black" points="282.67,-146.66 290.2,-139.21 279.67,-140.33 282.67,-146.66"/>
</g>
<!-- 140613084123184 -->
<g id="node2" class="node">
<title>140613084123184</title>
<polygon fill="none" stroke="black" points="767,-82.5 767,-118.5 1099,-118.5 1099,-82.5 767,-82.5"/>
<text text-anchor="middle" x="827.5" y="-96.8" font-family="Times,serif" font-size="14.00">x1*w1 + x2w2</text>
<polyline fill="none" stroke="black" points="888,-82.5 888,-118.5 "/>
<text text-anchor="middle" x="941.5" y="-96.8" font-family="Times,serif" font-size="14.00">data &#45;6.0000</text>
<polyline fill="none" stroke="black" points="995,-82.5 995,-118.5 "/>
<text text-anchor="middle" x="1047" y="-96.8" font-family="Times,serif" font-size="14.00">grad 0.0000</text>
</g>
<!-- 140613084123280+ -->
<g id="node7" class="node">
<title>140613084123280+</title>
<ellipse fill="none" stroke="black" cx="1162" cy="-72.5" rx="27" ry="18"/>
<text text-anchor="middle" x="1162" y="-68.8" font-family="Times,serif" font-size="14.00">+</text>
</g>
<!-- 140613084123184&#45;&gt;140613084123280+ -->
<g id="edge11" class="edge">
<title>140613084123184&#45;&gt;140613084123280+</title>
<path fill="none" stroke="black" d="M1080.01,-82.49C1096.55,-80.45 1112.08,-78.53 1125.04,-76.94"/>
<polygon fill="black" stroke="black" points="1125.78,-80.37 1135.28,-75.67 1124.92,-73.42 1125.78,-80.37"/>
</g>
<!-- 140613084123184+ -->
<g id="node3" class="node">
<title>140613084123184+</title>
<ellipse fill="none" stroke="black" cx="704" cy="-100.5" rx="27" ry="18"/>
<text text-anchor="middle" x="704" y="-96.8" font-family="Times,serif" font-size="14.00">+</text>
</g>
<!-- 140613084123184+&#45;&gt;140613084123184 -->
<g id="edge1" class="edge">
<title>140613084123184+&#45;&gt;140613084123184</title>
<path fill="none" stroke="black" d="M731.04,-100.5C738.47,-100.5 747.18,-100.5 756.72,-100.5"/>
<polygon fill="black" stroke="black" points="756.94,-104 766.94,-100.5 756.94,-97 756.94,-104"/>
</g>
<!-- 140613103586416 -->
<g id="node4" class="node">
<title>140613103586416</title>
<polygon fill="none" stroke="black" points="0,-55.5 0,-91.5 249,-91.5 249,-55.5 0,-55.5"/>
<text text-anchor="middle" x="19" y="-69.8" font-family="Times,serif" font-size="14.00">w1</text>
<polyline fill="none" stroke="black" points="38,-55.5 38,-91.5 "/>
<text text-anchor="middle" x="91.5" y="-69.8" font-family="Times,serif" font-size="14.00">data &#45;3.0000</text>
<polyline fill="none" stroke="black" points="145,-55.5 145,-91.5 "/>
<text text-anchor="middle" x="197" y="-69.8" font-family="Times,serif" font-size="14.00">grad 0.0000</text>
</g>
<!-- 140613084122992* -->
<g id="node13" class="node">
<title>140613084122992*</title>
<ellipse fill="none" stroke="black" cx="312" cy="-73.5" rx="27" ry="18"/>
<text text-anchor="middle" x="312" y="-69.8" font-family="Times,serif" font-size="14.00">*</text>
</g>
<!-- 140613103586416&#45;&gt;140613084122992* -->
<g id="edge14" class="edge">
<title>140613103586416&#45;&gt;140613084122992*</title>
<path fill="none" stroke="black" d="M249.23,-73.5C258.37,-73.5 267.05,-73.5 274.87,-73.5"/>
<polygon fill="black" stroke="black" points="274.95,-77 284.95,-73.5 274.95,-70 274.95,-77"/>
</g>
<!-- 140613497994352 -->
<g id="node5" class="node">
<title>140613497994352</title>
<polygon fill="none" stroke="black" points="4.5,-0.5 4.5,-36.5 244.5,-36.5 244.5,-0.5 4.5,-0.5"/>
<text text-anchor="middle" x="21.5" y="-14.8" font-family="Times,serif" font-size="14.00">x1</text>
<polyline fill="none" stroke="black" points="38.5,-0.5 38.5,-36.5 "/>
<text text-anchor="middle" x="89.5" y="-14.8" font-family="Times,serif" font-size="14.00">data 2.0000</text>
<polyline fill="none" stroke="black" points="140.5,-0.5 140.5,-36.5 "/>
<text text-anchor="middle" x="192.5" y="-14.8" font-family="Times,serif" font-size="14.00">grad 0.0000</text>
</g>
<!-- 140613497994352&#45;&gt;140613084122992* -->
<g id="edge10" class="edge">
<title>140613497994352&#45;&gt;140613084122992*</title>
<path fill="none" stroke="black" d="M214.42,-36.55C226.15,-39.54 237.93,-42.87 249,-46.5 259.46,-49.93 270.57,-54.47 280.46,-58.84"/>
<polygon fill="black" stroke="black" points="279.31,-62.17 289.87,-63.12 282.21,-55.79 279.31,-62.17"/>
</g>
<!-- 140613084123280 -->
<g id="node6" class="node">
<title>140613084123280</title>
<polygon fill="none" stroke="black" points="1225,-54.5 1225,-90.5 1457,-90.5 1457,-54.5 1225,-54.5"/>
<text text-anchor="middle" x="1238" y="-68.8" font-family="Times,serif" font-size="14.00">n</text>
<polyline fill="none" stroke="black" points="1251,-54.5 1251,-90.5 "/>
<text text-anchor="middle" x="1302" y="-68.8" font-family="Times,serif" font-size="14.00">data 0.7000</text>
<polyline fill="none" stroke="black" points="1353,-54.5 1353,-90.5 "/>
<text text-anchor="middle" x="1405" y="-68.8" font-family="Times,serif" font-size="14.00">grad 0.0000</text>
</g>
<!-- 140613084123376tanh -->
<g id="node9" class="node">
<title>140613084123376tanh</title>
<ellipse fill="none" stroke="black" cx="1524.85" cy="-72.5" rx="31.7" ry="18"/>
<text text-anchor="middle" x="1524.85" y="-68.8" font-family="Times,serif" font-size="14.00">tanh</text>
</g>
<!-- 140613084123280&#45;&gt;140613084123376tanh -->
<g id="edge6" class="edge">
<title>140613084123280&#45;&gt;140613084123376tanh</title>
<path fill="none" stroke="black" d="M1457.17,-72.5C1466.08,-72.5 1474.66,-72.5 1482.53,-72.5"/>
<polygon fill="black" stroke="black" points="1482.78,-76 1492.78,-72.5 1482.78,-69 1482.78,-76"/>
</g>
<!-- 140613084123280+&#45;&gt;140613084123280 -->
<g id="edge2" class="edge">
<title>140613084123280+&#45;&gt;140613084123280</title>
<path fill="none" stroke="black" d="M1189.12,-72.5C1196.53,-72.5 1205.14,-72.5 1214.4,-72.5"/>
<polygon fill="black" stroke="black" points="1214.69,-76 1224.69,-72.5 1214.69,-69 1214.69,-76"/>
</g>
<!-- 140613084123376 -->
<g id="node8" class="node">
<title>140613084123376</title>
<polygon fill="none" stroke="black" points="1592.69,-54.5 1592.69,-90.5 1823.69,-90.5 1823.69,-54.5 1592.69,-54.5"/>
<text text-anchor="middle" x="1605.19" y="-68.8" font-family="Times,serif" font-size="14.00">o</text>
<polyline fill="none" stroke="black" points="1617.69,-54.5 1617.69,-90.5 "/>
<text text-anchor="middle" x="1668.69" y="-68.8" font-family="Times,serif" font-size="14.00">data 0.6044</text>
<polyline fill="none" stroke="black" points="1719.69,-54.5 1719.69,-90.5 "/>
<text text-anchor="middle" x="1771.69" y="-68.8" font-family="Times,serif" font-size="14.00">grad 0.0000</text>
</g>
<!-- 140613084123376tanh&#45;&gt;140613084123376 -->
<g id="edge3" class="edge">
<title>140613084123376tanh&#45;&gt;140613084123376</title>
<path fill="none" stroke="black" d="M1557.02,-72.5C1564.61,-72.5 1573.19,-72.5 1582.31,-72.5"/>
<polygon fill="black" stroke="black" points="1582.4,-76 1592.4,-72.5 1582.4,-69 1582.4,-76"/>
</g>
<!-- 140613084122416 -->
<g id="node10" class="node">
<title>140613084122416</title>
<polygon fill="none" stroke="black" points="2.5,-110.5 2.5,-146.5 246.5,-146.5 246.5,-110.5 2.5,-110.5"/>
<text text-anchor="middle" x="21.5" y="-124.8" font-family="Times,serif" font-size="14.00">w2</text>
<polyline fill="none" stroke="black" points="40.5,-110.5 40.5,-146.5 "/>
<text text-anchor="middle" x="91.5" y="-124.8" font-family="Times,serif" font-size="14.00">data 1.0000</text>
<polyline fill="none" stroke="black" points="142.5,-110.5 142.5,-146.5 "/>
<text text-anchor="middle" x="194.5" y="-124.8" font-family="Times,serif" font-size="14.00">grad 0.0000</text>
</g>
<!-- 140613084122416&#45;&gt;140613084123088* -->
<g id="edge13" class="edge">
<title>140613084122416&#45;&gt;140613084123088*</title>
<path fill="none" stroke="black" d="M246.64,-128.5C256.7,-128.5 266.26,-128.5 274.79,-128.5"/>
<polygon fill="black" stroke="black" points="275,-132 285,-128.5 275,-125 275,-132"/>
</g>
<!-- 140613084122944 -->
<g id="node11" class="node">
<title>140613084122944</title>
<polygon fill="none" stroke="black" points="817,-27.5 817,-63.5 1049,-63.5 1049,-27.5 817,-27.5"/>
<text text-anchor="middle" x="830" y="-41.8" font-family="Times,serif" font-size="14.00">b</text>
<polyline fill="none" stroke="black" points="843,-27.5 843,-63.5 "/>
<text text-anchor="middle" x="894" y="-41.8" font-family="Times,serif" font-size="14.00">data 6.7000</text>
<polyline fill="none" stroke="black" points="945,-27.5 945,-63.5 "/>
<text text-anchor="middle" x="997" y="-41.8" font-family="Times,serif" font-size="14.00">grad 0.0000</text>
</g>
<!-- 140613084122944&#45;&gt;140613084123280+ -->
<g id="edge8" class="edge">
<title>140613084122944&#45;&gt;140613084123280+</title>
<path fill="none" stroke="black" d="M1049.16,-59.2C1076.76,-62.48 1104.24,-65.75 1125.04,-68.22"/>
<polygon fill="black" stroke="black" points="1124.65,-71.7 1134.99,-69.41 1125.47,-64.75 1124.65,-71.7"/>
</g>
<!-- 140613084122992 -->
<g id="node12" class="node">
<title>140613084122992</title>
<polygon fill="none" stroke="black" points="375,-55.5 375,-91.5 641,-91.5 641,-55.5 375,-55.5"/>
<text text-anchor="middle" x="402.5" y="-69.8" font-family="Times,serif" font-size="14.00">x1w1</text>
<polyline fill="none" stroke="black" points="430,-55.5 430,-91.5 "/>
<text text-anchor="middle" x="483.5" y="-69.8" font-family="Times,serif" font-size="14.00">data &#45;6.0000</text>
<polyline fill="none" stroke="black" points="537,-55.5 537,-91.5 "/>
<text text-anchor="middle" x="589" y="-69.8" font-family="Times,serif" font-size="14.00">grad 0.0000</text>
</g>
<!-- 140613084122992&#45;&gt;140613084123184+ -->
<g id="edge7" class="edge">
<title>140613084122992&#45;&gt;140613084123184+</title>
<path fill="none" stroke="black" d="M638.4,-91.51C648.78,-92.95 658.6,-94.32 667.3,-95.53"/>
<polygon fill="black" stroke="black" points="666.94,-99.01 677.32,-96.93 667.9,-92.08 666.94,-99.01"/>
</g>
<!-- 140613084122992*&#45;&gt;140613084122992 -->
<g id="edge4" class="edge">
<title>140613084122992*&#45;&gt;140613084122992</title>
<path fill="none" stroke="black" d="M339.16,-73.5C346.61,-73.5 355.28,-73.5 364.68,-73.5"/>
<polygon fill="black" stroke="black" points="364.73,-77 374.73,-73.5 364.73,-70 364.73,-77"/>
</g>
<!-- 140613084123088 -->
<g id="node14" class="node">
<title>140613084123088</title>
<polygon fill="none" stroke="black" points="377.5,-110.5 377.5,-146.5 638.5,-146.5 638.5,-110.5 377.5,-110.5"/>
<text text-anchor="middle" x="405" y="-124.8" font-family="Times,serif" font-size="14.00">x2w2</text>
<polyline fill="none" stroke="black" points="432.5,-110.5 432.5,-146.5 "/>
<text text-anchor="middle" x="483.5" y="-124.8" font-family="Times,serif" font-size="14.00">data 0.0000</text>
<polyline fill="none" stroke="black" points="534.5,-110.5 534.5,-146.5 "/>
<text text-anchor="middle" x="586.5" y="-124.8" font-family="Times,serif" font-size="14.00">grad 0.0000</text>
</g>
<!-- 140613084123088&#45;&gt;140613084123184+ -->
<g id="edge12" class="edge">
<title>140613084123088&#45;&gt;140613084123184+</title>
<path fill="none" stroke="black" d="M633.78,-110.49C645.77,-108.76 657.15,-107.12 667.08,-105.68"/>
<polygon fill="black" stroke="black" points="667.86,-109.11 677.25,-104.22 666.86,-102.18 667.86,-109.11"/>
</g>
<!-- 140613084123088*&#45;&gt;140613084123088 -->
<g id="edge5" class="edge">
<title>140613084123088*&#45;&gt;140613084123088</title>
<path fill="none" stroke="black" d="M339.16,-128.5C347.24,-128.5 356.75,-128.5 367.07,-128.5"/>
<polygon fill="black" stroke="black" points="367.2,-132 377.2,-128.5 367.2,-125 367.2,-132"/>
</g>
</g>
</svg>
